<svg width="150" height="170" xmlns="http://www.w3.org/2000/svg"><ellipse opacity=".4" filter="url(#svg_4_blur)" fill="#ff0042" cx="75" cy="140" rx="60" ry="19"/><path fill="url(#svg_1)" d="M.5 74.916C.5 33.68 33.892.25 75.083.25a74.541 74.541 0 0152.739 21.87 74.709 74.709 0 0121.844 52.796c0 41.238-33.392 74.667-74.583 74.667C33.893 149.583.5 116.153.5 74.917h.389H.5zm37.292 0c0 20.62 16.696 37.334 37.291 37.334 20.596 0 37.292-16.715 37.292-37.333 0-20.62-16.696-37.334-37.292-37.334-20.595 0-37.291 16.715-37.291 37.334z"/><defs><linearGradient y2="0" x2="1" y1="0" x1="0" id="svg_1"><stop offset="0" stop-opacity=".996" stop-color="#a01c35"/><stop offset="1" stop-opacity=".996" stop-color="#ff0042"/></linearGradient><filter height="200%" width="200%" y="-50%" x="-50%" id="svg_4_blur"><feGaussianBlur stdDeviation="7" in="SourceGraphic"/></filter></defs></svg>